<svg xmlns="http://www.w3.org/2000/svg" xmlns:xlink="http://www.w3.org/1999/xlink" width="500" zoomAndPan="magnify" viewBox="0 0 375 374.999991" height="500" preserveAspectRatio="xMidYMid meet" version="1.0"><defs><g/><clipPath id="65f0c60e96"><path d="M 78 183 L 129.941406 183 L 129.941406 192 L 78 192 Z M 78 183 " clip-rule="nonzero"/></clipPath><clipPath id="c2e847b905"><path d="M 88 163 L 129.941406 163 L 129.941406 172 L 88 172 Z M 88 163 " clip-rule="nonzero"/></clipPath><clipPath id="97eba6a155"><path d="M 109 173 L 129.941406 173 L 129.941406 182 L 109 182 Z M 109 173 " clip-rule="nonzero"/></clipPath><clipPath id="4cf342ed76"><path d="M 65.441406 183 L 75 183 L 75 192 L 65.441406 192 Z M 65.441406 183 " clip-rule="nonzero"/></clipPath><clipPath id="2c83e58cc2"><path d="M 90 193 L 129.941406 193 L 129.941406 202 L 90 202 Z M 90 193 " clip-rule="nonzero"/></clipPath><clipPath id="f2de0d2cb7"><path d="M 94 202 L 129.941406 202 L 129.941406 211 L 94 211 Z M 94 202 " clip-rule="nonzero"/></clipPath></defs><rect x="-37.5" width="450" fill="#ffffff" y="-37.499999" height="449.999989" fill-opacity="1"/><rect x="-37.5" width="450" fill="#000000" y="-37.499999" height="449.999989" fill-opacity="1"/><g clip-path="url(#65f0c60e96)"><path fill="#5a316b" d="M 152.207031 183.402344 L 110.691406 183.402344 L 108.917969 186.46875 L 104.816406 186.46875 L 103.042969 183.402344 C 101.511719 183.402344 82.359375 183.402344 80.832031 183.402344 L 78.539062 187.375 L 80.832031 191.347656 C 82.359375 191.347656 101.511719 191.347656 103.042969 191.347656 L 104.816406 188.28125 L 108.917969 188.28125 L 110.691406 191.347656 L 152.207031 191.347656 C 152.664062 188.722656 152.664062 186.035156 152.207031 183.402344 Z M 152.207031 183.402344 " fill-opacity="1" fill-rule="nonzero"/></g><g clip-path="url(#c2e847b905)"><path fill="#5a316b" d="M 95.210938 171.820312 L 96.984375 168.757812 L 101.085938 168.757812 L 102.859375 171.820312 L 146.628906 171.820312 C 138.402344 162.546875 129.175781 163.871094 118.050781 163.871094 L 102.859375 163.871094 L 101.085938 166.9375 L 96.984375 166.9375 L 95.210938 163.871094 L 90.625 163.871094 L 88.332031 167.84375 L 90.625 171.8125 L 95.210938 171.8125 Z M 95.210938 171.820312 " fill-opacity="1" fill-rule="nonzero"/></g><g clip-path="url(#97eba6a155)"><path fill="#5a316b" d="M 122.628906 176.707031 L 118.523438 176.707031 L 116.75 173.640625 L 112.164062 173.640625 L 109.871094 177.613281 L 112.164062 181.585938 L 116.75 181.585938 L 118.523438 178.519531 L 122.628906 178.519531 L 124.402344 181.585938 L 151.820312 181.585938 C 151.082031 178.683594 149.796875 175.996094 148.085938 173.632812 L 124.402344 173.632812 Z M 122.628906 176.707031 " fill-opacity="1" fill-rule="nonzero"/></g><g clip-path="url(#4cf342ed76)"><path fill="#5a316b" d="M 67.734375 183.402344 L 65.441406 187.375 L 67.734375 191.355469 L 72.328125 191.355469 L 74.621094 187.375 L 72.328125 183.402344 Z M 67.734375 183.402344 " fill-opacity="1" fill-rule="nonzero"/></g><path fill="#5a316b" d="M 96.777344 177.613281 L 99.070312 181.585938 L 103.664062 181.585938 L 105.957031 177.613281 L 103.664062 173.640625 L 99.070312 173.640625 Z M 96.777344 177.613281 " fill-opacity="1" fill-rule="nonzero"/><path fill="#5a316b" d="M 83.40625 202.929688 L 81.105469 206.90625 L 83.40625 210.878906 L 87.992188 210.878906 L 90.285156 206.90625 L 87.992188 202.929688 Z M 83.40625 202.929688 " fill-opacity="1" fill-rule="nonzero"/><g clip-path="url(#2c83e58cc2)"><path fill="#5a316b" d="M 103.042969 196.230469 L 98.9375 196.230469 L 97.164062 193.167969 L 92.578125 193.167969 L 90.285156 197.136719 L 92.578125 201.109375 L 97.164062 201.109375 L 98.9375 198.042969 L 103.042969 198.042969 L 104.816406 201.109375 L 148.078125 201.109375 C 149.789062 198.746094 151.074219 196.058594 151.8125 193.160156 C 137.449219 193.160156 119.171875 193.160156 104.808594 193.160156 Z M 103.042969 196.230469 " fill-opacity="1" fill-rule="nonzero"/></g><g clip-path="url(#f2de0d2cb7)"><path fill="#5a316b" d="M 114.796875 206 L 110.691406 206 L 108.917969 202.9375 C 104.78125 202.9375 100.636719 202.9375 96.496094 202.9375 L 94.203125 206.90625 L 96.496094 210.878906 C 100.636719 210.878906 104.773438 210.878906 108.917969 210.878906 L 110.691406 207.8125 L 114.796875 207.8125 L 116.570312 210.878906 C 128.316406 210.878906 138.191406 212.445312 146.628906 202.929688 L 116.570312 202.929688 Z M 114.796875 206 " fill-opacity="1" fill-rule="nonzero"/></g><path stroke-linecap="round" transform="matrix(0, 0.75, -0.75, 0, 131.314947, 159.251942)" fill="none" stroke-linejoin="miter" d="M 1.497411 1.498055 L 73.830749 1.498055 " stroke="#5a316b" stroke-width="3" stroke-opacity="1" stroke-miterlimit="4"/><g fill="#ffffff" fill-opacity="1"><g transform="translate(136.912749, 191.942788)"><g><path d="M 2.765625 0 L -0.15625 0 L 3.8125 -10.453125 L 6.796875 -10.453125 L 10.75 0 L 7.84375 0 L 7.171875 -1.859375 L 3.4375 -1.859375 Z M 4.109375 -3.8125 L 6.5 -3.8125 L 5.296875 -7.3125 Z M 4.109375 -3.8125 "/></g></g></g><g fill="#ffffff" fill-opacity="1"><g transform="translate(150.512188, 191.942788)"><g><path d="M 3.578125 -2.09375 L 9.03125 -2.09375 L 9.03125 0 L 0.890625 0 L 0.890625 -10.453125 L 3.578125 -10.453125 Z M 3.578125 -2.09375 "/></g></g></g><g fill="#ffffff" fill-opacity="1"><g transform="translate(162.691944, 191.942788)"><g><path d="M 3.578125 -2.09375 L 9.03125 -2.09375 L 9.03125 0 L 0.890625 0 L 0.890625 -10.453125 L 3.578125 -10.453125 Z M 3.578125 -2.09375 "/></g></g></g><g fill="#ffffff" fill-opacity="1"><g transform="translate(202.402604, 192.690571)"><g><path d="M 7.265625 -7.265625 C 7.265625 -7.828125 6.976562 -8.109375 6.40625 -8.109375 L 3.984375 -8.109375 C 3.410156 -8.109375 3.125 -7.828125 3.125 -7.265625 L 3.125 -2.703125 C 3.125 -2.128906 3.410156 -1.84375 3.984375 -1.84375 L 6.40625 -1.84375 C 6.976562 -1.84375 7.265625 -2.128906 7.265625 -2.703125 Z M 9.828125 -2.703125 C 9.828125 -1.703125 9.597656 -0.976562 9.140625 -0.53125 C 8.691406 -0.0820312 7.96875 0.140625 6.96875 0.140625 L 3.421875 0.140625 C 2.421875 0.140625 1.691406 -0.0820312 1.234375 -0.53125 C 0.785156 -0.976562 0.5625 -1.703125 0.5625 -2.703125 L 0.5625 -7.265625 C 0.5625 -8.253906 0.785156 -8.972656 1.234375 -9.421875 C 1.691406 -9.878906 2.421875 -10.109375 3.421875 -10.109375 L 6.96875 -10.109375 C 7.96875 -10.109375 8.691406 -9.878906 9.140625 -9.421875 C 9.597656 -8.972656 9.828125 -8.253906 9.828125 -7.265625 Z M 9.828125 -2.703125 "/></g></g></g><g fill="#ffffff" fill-opacity="1"><g transform="translate(215.646191, 192.690571)"><g><path d="M 9.53125 0 L 6.828125 0 L 3.421875 -5.984375 L 3.421875 0 L 0.859375 0 L 0.859375 -9.96875 L 3.5625 -9.96875 L 6.96875 -3.984375 L 6.96875 -9.96875 L 9.53125 -9.96875 Z M 9.53125 0 "/></g></g></g><g fill="#ffffff" fill-opacity="1"><g transform="translate(228.889777, 192.690571)"><g><path d="M 8.75 0 L 0.859375 0 L 0.859375 -9.96875 L 8.75 -9.96875 L 8.75 -7.96875 L 3.421875 -7.96875 L 3.421875 -6.046875 L 7.609375 -6.046875 L 7.609375 -4.0625 L 3.421875 -4.0625 L 3.421875 -2 L 8.75 -2 Z M 8.75 0 "/></g></g></g><g fill="#5a316b" fill-opacity="1"><g transform="translate(176.57297, 193.342873)"><g><path d="M 11.65625 -4.1875 L 0.59375 -4.1875 L 0.59375 -8.375 L 7.765625 -20.921875 L 13.75 -20.921875 L 6.578125 -8.375 L 11.65625 -8.375 L 11.65625 -12.859375 L 17.03125 -12.859375 L 17.03125 -8.375 L 19.125 -8.375 L 19.125 -4.1875 L 17.03125 -4.1875 L 17.03125 0 L 11.65625 0 Z M 11.65625 -4.1875 "/></g></g></g><path stroke-linecap="round" transform="matrix(0.75, 0, 0, 0.75, 115.959546, 195.786052)" fill="none" stroke-linejoin="miter" d="M 1.501855 1.498806 L 171.684158 1.498806 " stroke="#5a316b" stroke-width="3" stroke-opacity="1" stroke-miterlimit="4"/><g fill="#ffffff" fill-opacity="1"><g transform="translate(135.440343, 210.158479)"><g><path d="M 0.90625 0 L 0.90625 -6.1875 L 3.296875 -6.1875 C 3.890625 -6.1875 4.363281 -6.035156 4.71875 -5.734375 C 5.082031 -5.441406 5.265625 -5.046875 5.265625 -4.546875 C 5.265625 -4.242188 5.191406 -3.976562 5.046875 -3.75 C 4.910156 -3.519531 4.710938 -3.335938 4.453125 -3.203125 C 4.773438 -3.078125 5.019531 -2.882812 5.1875 -2.625 C 5.351562 -2.375 5.4375 -2.078125 5.4375 -1.734375 C 5.4375 -1.191406 5.253906 -0.765625 4.890625 -0.453125 C 4.523438 -0.148438 4.03125 0 3.40625 0 Z M 1.6875 -0.71875 L 3.390625 -0.71875 C 3.796875 -0.71875 4.101562 -0.8125 4.3125 -1 C 4.53125 -1.1875 4.640625 -1.441406 4.640625 -1.765625 C 4.640625 -2.097656 4.53125 -2.351562 4.3125 -2.53125 C 4.09375 -2.707031 3.785156 -2.796875 3.390625 -2.796875 L 1.6875 -2.796875 Z M 1.6875 -3.515625 L 3.28125 -3.515625 C 3.664062 -3.515625 3.957031 -3.597656 4.15625 -3.765625 C 4.363281 -3.941406 4.46875 -4.179688 4.46875 -4.484375 C 4.46875 -4.796875 4.363281 -5.035156 4.15625 -5.203125 C 3.945312 -5.378906 3.65625 -5.46875 3.28125 -5.46875 L 1.6875 -5.46875 Z M 1.6875 -3.515625 "/></g></g></g><g fill="#ffffff" fill-opacity="1"><g transform="translate(141.372997, 210.158479)"><g><path d="M 0.828125 0 L 0.828125 -4.59375 L 1.4375 -4.59375 L 1.515625 -3.796875 C 1.679688 -4.066406 1.882812 -4.265625 2.125 -4.390625 C 2.375 -4.523438 2.695312 -4.59375 3.09375 -4.59375 L 3.5 -4.59375 L 3.5 -3.90625 L 3.046875 -3.90625 C 2.773438 -3.90625 2.523438 -3.847656 2.296875 -3.734375 C 2.078125 -3.617188 1.898438 -3.429688 1.765625 -3.171875 C 1.628906 -2.910156 1.5625 -2.5625 1.5625 -2.125 L 1.5625 0 Z M 0.828125 0 "/></g></g></g><g fill="#ffffff" fill-opacity="1"><g transform="translate(145.227896, 210.158479)"><g><path d="M 0.828125 0 L 0.828125 -4.59375 L 1.5625 -4.59375 L 1.5625 0 Z M 0.59375 -5.921875 C 0.59375 -6.097656 0.644531 -6.238281 0.75 -6.34375 C 0.863281 -6.457031 1.007812 -6.515625 1.1875 -6.515625 C 1.375 -6.515625 1.519531 -6.457031 1.625 -6.34375 C 1.726562 -6.238281 1.78125 -6.097656 1.78125 -5.921875 C 1.78125 -5.753906 1.726562 -5.613281 1.625 -5.5 C 1.519531 -5.394531 1.375 -5.34375 1.1875 -5.34375 C 1.007812 -5.34375 0.863281 -5.394531 0.75 -5.5 C 0.644531 -5.613281 0.59375 -5.753906 0.59375 -5.921875 Z M 0.59375 -5.921875 "/></g></g></g><g fill="#ffffff" fill-opacity="1"><g transform="translate(147.615101, 210.158479)"><g><path d="M 2.796875 0.109375 C 2.347656 0.109375 1.945312 0.00390625 1.59375 -0.203125 C 1.238281 -0.410156 0.957031 -0.691406 0.75 -1.046875 C 0.550781 -1.410156 0.453125 -1.828125 0.453125 -2.296875 C 0.453125 -2.765625 0.550781 -3.175781 0.75 -3.53125 C 0.957031 -3.894531 1.238281 -4.179688 1.59375 -4.390625 C 1.945312 -4.597656 2.347656 -4.703125 2.796875 -4.703125 C 3.160156 -4.703125 3.492188 -4.632812 3.796875 -4.5 C 4.097656 -4.375 4.347656 -4.1875 4.546875 -3.9375 L 4.546875 -6.546875 L 5.296875 -6.546875 L 5.296875 0 L 4.6875 0 L 4.59375 -0.703125 C 4.394531 -0.453125 4.140625 -0.253906 3.828125 -0.109375 C 3.515625 0.0351562 3.171875 0.109375 2.796875 0.109375 Z M 1.203125 -2.296875 C 1.203125 -1.960938 1.273438 -1.664062 1.421875 -1.40625 C 1.566406 -1.15625 1.765625 -0.957031 2.015625 -0.8125 C 2.265625 -0.664062 2.554688 -0.59375 2.890625 -0.59375 C 3.222656 -0.59375 3.515625 -0.664062 3.765625 -0.8125 C 4.023438 -0.957031 4.222656 -1.15625 4.359375 -1.40625 C 4.503906 -1.664062 4.578125 -1.960938 4.578125 -2.296875 C 4.578125 -2.628906 4.503906 -2.921875 4.359375 -3.171875 C 4.222656 -3.429688 4.023438 -3.632812 3.765625 -3.78125 C 3.515625 -3.925781 3.222656 -4 2.890625 -4 C 2.554688 -4 2.265625 -3.925781 2.015625 -3.78125 C 1.765625 -3.632812 1.566406 -3.429688 1.421875 -3.171875 C 1.273438 -2.921875 1.203125 -2.628906 1.203125 -2.296875 Z M 1.203125 -2.296875 "/></g></g></g><g fill="#ffffff" fill-opacity="1"><g transform="translate(153.733425, 210.158479)"><g><path d="M 2.875 1.890625 C 2.289062 1.890625 1.800781 1.742188 1.40625 1.453125 C 1.019531 1.171875 0.785156 0.785156 0.703125 0.296875 L 1.453125 0.296875 C 1.523438 0.566406 1.6875 0.78125 1.9375 0.9375 C 2.1875 1.101562 2.5 1.1875 2.875 1.1875 C 3.351562 1.1875 3.722656 1.054688 3.984375 0.796875 C 4.253906 0.546875 4.390625 0.179688 4.390625 -0.296875 L 4.390625 -0.71875 C 4.191406 -0.507812 3.953125 -0.34375 3.671875 -0.21875 C 3.390625 -0.101562 3.082031 -0.046875 2.75 -0.046875 C 2.3125 -0.046875 1.921875 -0.144531 1.578125 -0.34375 C 1.234375 -0.550781 0.957031 -0.828125 0.75 -1.171875 C 0.550781 -1.523438 0.453125 -1.925781 0.453125 -2.375 C 0.453125 -2.820312 0.550781 -3.21875 0.75 -3.5625 C 0.957031 -3.914062 1.234375 -4.191406 1.578125 -4.390625 C 1.921875 -4.597656 2.3125 -4.703125 2.75 -4.703125 C 3.09375 -4.703125 3.410156 -4.632812 3.703125 -4.5 C 3.992188 -4.375 4.242188 -4.195312 4.453125 -3.96875 L 4.53125 -4.59375 L 5.140625 -4.59375 L 5.140625 -0.265625 C 5.140625 0.160156 5.046875 0.535156 4.859375 0.859375 C 4.671875 1.191406 4.40625 1.445312 4.0625 1.625 C 3.726562 1.800781 3.332031 1.890625 2.875 1.890625 Z M 1.203125 -2.375 C 1.203125 -2.0625 1.269531 -1.78125 1.40625 -1.53125 C 1.550781 -1.289062 1.742188 -1.101562 1.984375 -0.96875 C 2.234375 -0.832031 2.515625 -0.765625 2.828125 -0.765625 C 3.148438 -0.765625 3.429688 -0.832031 3.671875 -0.96875 C 3.921875 -1.101562 4.113281 -1.289062 4.25 -1.53125 C 4.382812 -1.78125 4.453125 -2.0625 4.453125 -2.375 C 4.453125 -2.6875 4.382812 -2.960938 4.25 -3.203125 C 4.113281 -3.453125 3.921875 -3.644531 3.671875 -3.78125 C 3.429688 -3.914062 3.148438 -3.984375 2.828125 -3.984375 C 2.515625 -3.984375 2.234375 -3.914062 1.984375 -3.78125 C 1.742188 -3.644531 1.550781 -3.453125 1.40625 -3.203125 C 1.269531 -2.960938 1.203125 -2.6875 1.203125 -2.375 Z M 1.203125 -2.375 "/></g></g></g><g fill="#ffffff" fill-opacity="1"><g transform="translate(159.6926, 210.158479)"><g><path d="M 0.828125 0 L 0.828125 -4.59375 L 1.5625 -4.59375 L 1.5625 0 Z M 0.59375 -5.921875 C 0.59375 -6.097656 0.644531 -6.238281 0.75 -6.34375 C 0.863281 -6.457031 1.007812 -6.515625 1.1875 -6.515625 C 1.375 -6.515625 1.519531 -6.457031 1.625 -6.34375 C 1.726562 -6.238281 1.78125 -6.097656 1.78125 -5.921875 C 1.78125 -5.753906 1.726562 -5.613281 1.625 -5.5 C 1.519531 -5.394531 1.375 -5.34375 1.1875 -5.34375 C 1.007812 -5.34375 0.863281 -5.394531 0.75 -5.5 C 0.644531 -5.613281 0.59375 -5.753906 0.59375 -5.921875 Z M 0.59375 -5.921875 "/></g></g></g><g fill="#ffffff" fill-opacity="1"><g transform="translate(162.079805, 210.158479)"><g><path d="M 0.828125 0 L 0.828125 -4.59375 L 1.4375 -4.59375 L 1.515625 -3.921875 C 1.710938 -4.191406 1.953125 -4.390625 2.234375 -4.515625 C 2.523438 -4.640625 2.820312 -4.703125 3.125 -4.703125 C 3.738281 -4.703125 4.21875 -4.503906 4.5625 -4.109375 C 4.90625 -3.722656 5.078125 -3.207031 5.078125 -2.5625 L 5.078125 0 L 4.328125 0 L 4.328125 -2.484375 C 4.328125 -2.953125 4.210938 -3.320312 3.984375 -3.59375 C 3.753906 -3.863281 3.4375 -4 3.03125 -4 C 2.75 -4 2.5 -3.925781 2.28125 -3.78125 C 2.0625 -3.644531 1.882812 -3.453125 1.75 -3.203125 C 1.625 -2.953125 1.5625 -2.65625 1.5625 -2.3125 L 1.5625 0 Z M 0.828125 0 "/></g></g></g><g fill="#ffffff" fill-opacity="1"><g transform="translate(167.888669, 210.158479)"><g><path d="M 2.875 1.890625 C 2.289062 1.890625 1.800781 1.742188 1.40625 1.453125 C 1.019531 1.171875 0.785156 0.785156 0.703125 0.296875 L 1.453125 0.296875 C 1.523438 0.566406 1.6875 0.78125 1.9375 0.9375 C 2.1875 1.101562 2.5 1.1875 2.875 1.1875 C 3.351562 1.1875 3.722656 1.054688 3.984375 0.796875 C 4.253906 0.546875 4.390625 0.179688 4.390625 -0.296875 L 4.390625 -0.71875 C 4.191406 -0.507812 3.953125 -0.34375 3.671875 -0.21875 C 3.390625 -0.101562 3.082031 -0.046875 2.75 -0.046875 C 2.3125 -0.046875 1.921875 -0.144531 1.578125 -0.34375 C 1.234375 -0.550781 0.957031 -0.828125 0.75 -1.171875 C 0.550781 -1.523438 0.453125 -1.925781 0.453125 -2.375 C 0.453125 -2.820312 0.550781 -3.21875 0.75 -3.5625 C 0.957031 -3.914062 1.234375 -4.191406 1.578125 -4.390625 C 1.921875 -4.597656 2.3125 -4.703125 2.75 -4.703125 C 3.09375 -4.703125 3.410156 -4.632812 3.703125 -4.5 C 3.992188 -4.375 4.242188 -4.195312 4.453125 -3.96875 L 4.53125 -4.59375 L 5.140625 -4.59375 L 5.140625 -0.265625 C 5.140625 0.160156 5.046875 0.535156 4.859375 0.859375 C 4.671875 1.191406 4.40625 1.445312 4.0625 1.625 C 3.726562 1.800781 3.332031 1.890625 2.875 1.890625 Z M 1.203125 -2.375 C 1.203125 -2.0625 1.269531 -1.78125 1.40625 -1.53125 C 1.550781 -1.289062 1.742188 -1.101562 1.984375 -0.96875 C 2.234375 -0.832031 2.515625 -0.765625 2.828125 -0.765625 C 3.148438 -0.765625 3.429688 -0.832031 3.671875 -0.96875 C 3.921875 -1.101562 4.113281 -1.289062 4.25 -1.53125 C 4.382812 -1.78125 4.453125 -2.0625 4.453125 -2.375 C 4.453125 -2.6875 4.382812 -2.960938 4.25 -3.203125 C 4.113281 -3.453125 3.921875 -3.644531 3.671875 -3.78125 C 3.429688 -3.914062 3.148438 -3.984375 2.828125 -3.984375 C 2.515625 -3.984375 2.234375 -3.914062 1.984375 -3.78125 C 1.742188 -3.644531 1.550781 -3.453125 1.40625 -3.203125 C 1.269531 -2.960938 1.203125 -2.6875 1.203125 -2.375 Z M 1.203125 -2.375 "/></g></g></g><g fill="#ffffff" fill-opacity="1"><g transform="translate(173.847844, 210.158479)"><g/></g></g><g fill="#ffffff" fill-opacity="1"><g transform="translate(176.040543, 210.158479)"><g><path d="M 2.796875 0 C 2.296875 0 1.90625 -0.140625 1.625 -0.421875 C 1.34375 -0.710938 1.203125 -1.125 1.203125 -1.65625 L 1.203125 -3.90625 L 0.234375 -3.90625 L 0.234375 -4.59375 L 0.703125 -4.59375 C 0.910156 -4.59375 1.054688 -4.625 1.140625 -4.6875 C 1.222656 -4.757812 1.273438 -4.898438 1.296875 -5.109375 L 1.375 -5.734375 L 1.953125 -5.734375 L 1.953125 -4.59375 L 3.4375 -4.59375 L 3.4375 -3.90625 L 1.953125 -3.90625 L 1.953125 -1.6875 C 1.953125 -1.039062 2.25 -0.71875 2.84375 -0.71875 L 3.5 -0.71875 L 3.5 0 Z M 2.796875 0 "/></g></g></g><g fill="#ffffff" fill-opacity="1"><g transform="translate(179.966168, 210.158479)"><g><path d="M 0.828125 0 L 0.828125 -6.546875 L 1.5625 -6.546875 L 1.5625 -3.984375 C 1.757812 -4.234375 2 -4.414062 2.28125 -4.53125 C 2.5625 -4.644531 2.847656 -4.703125 3.140625 -4.703125 C 3.742188 -4.703125 4.21875 -4.507812 4.5625 -4.125 C 4.90625 -3.75 5.078125 -3.234375 5.078125 -2.578125 L 5.078125 0 L 4.328125 0 L 4.328125 -2.515625 C 4.328125 -2.972656 4.210938 -3.332031 3.984375 -3.59375 C 3.753906 -3.863281 3.441406 -4 3.046875 -4 C 2.609375 -4 2.25 -3.847656 1.96875 -3.546875 C 1.695312 -3.253906 1.5625 -2.851562 1.5625 -2.34375 L 1.5625 0 Z M 0.828125 0 "/></g></g></g><g fill="#ffffff" fill-opacity="1"><g transform="translate(185.775032, 210.158479)"><g><path d="M 2.8125 0.109375 C 2.351562 0.109375 1.945312 0.0078125 1.59375 -0.1875 C 1.238281 -0.394531 0.957031 -0.679688 0.75 -1.046875 C 0.550781 -1.410156 0.453125 -1.828125 0.453125 -2.296875 C 0.453125 -2.765625 0.550781 -3.179688 0.75 -3.546875 C 0.957031 -3.910156 1.238281 -4.191406 1.59375 -4.390625 C 1.945312 -4.597656 2.359375 -4.703125 2.828125 -4.703125 C 3.316406 -4.703125 3.738281 -4.585938 4.09375 -4.359375 C 4.457031 -4.128906 4.734375 -3.8125 4.921875 -3.40625 C 5.109375 -3 5.195312 -2.53125 5.1875 -2 L 1.21875 -2 C 1.269531 -1.570312 1.441406 -1.226562 1.734375 -0.96875 C 2.023438 -0.707031 2.390625 -0.578125 2.828125 -0.578125 C 3.117188 -0.578125 3.390625 -0.640625 3.640625 -0.765625 C 3.890625 -0.898438 4.085938 -1.085938 4.234375 -1.328125 L 5.0625 -1.328125 C 4.882812 -0.878906 4.59375 -0.523438 4.1875 -0.265625 C 3.789062 -0.015625 3.332031 0.109375 2.8125 0.109375 Z M 1.21875 -2.65625 L 4.4375 -2.65625 C 4.363281 -3.070312 4.179688 -3.398438 3.890625 -3.640625 C 3.597656 -3.878906 3.242188 -4 2.828125 -4 C 2.398438 -4 2.039062 -3.875 1.75 -3.625 C 1.457031 -3.382812 1.28125 -3.0625 1.21875 -2.65625 Z M 1.21875 -2.65625 "/></g></g></g><g fill="#ffffff" fill-opacity="1"><g transform="translate(191.398226, 210.158479)"><g/></g></g><g fill="#ffffff" fill-opacity="1"><g transform="translate(193.590925, 210.158479)"><g><path d="M 2.875 1.890625 C 2.289062 1.890625 1.800781 1.742188 1.40625 1.453125 C 1.019531 1.171875 0.785156 0.785156 0.703125 0.296875 L 1.453125 0.296875 C 1.523438 0.566406 1.6875 0.78125 1.9375 0.9375 C 2.1875 1.101562 2.5 1.1875 2.875 1.1875 C 3.351562 1.1875 3.722656 1.054688 3.984375 0.796875 C 4.253906 0.546875 4.390625 0.179688 4.390625 -0.296875 L 4.390625 -0.71875 C 4.191406 -0.507812 3.953125 -0.34375 3.671875 -0.21875 C 3.390625 -0.101562 3.082031 -0.046875 2.75 -0.046875 C 2.3125 -0.046875 1.921875 -0.144531 1.578125 -0.34375 C 1.234375 -0.550781 0.957031 -0.828125 0.75 -1.171875 C 0.550781 -1.523438 0.453125 -1.925781 0.453125 -2.375 C 0.453125 -2.820312 0.550781 -3.21875 0.75 -3.5625 C 0.957031 -3.914062 1.234375 -4.191406 1.578125 -4.390625 C 1.921875 -4.597656 2.3125 -4.703125 2.75 -4.703125 C 3.09375 -4.703125 3.410156 -4.632812 3.703125 -4.5 C 3.992188 -4.375 4.242188 -4.195312 4.453125 -3.96875 L 4.53125 -4.59375 L 5.140625 -4.59375 L 5.140625 -0.265625 C 5.140625 0.160156 5.046875 0.535156 4.859375 0.859375 C 4.671875 1.191406 4.40625 1.445312 4.0625 1.625 C 3.726562 1.800781 3.332031 1.890625 2.875 1.890625 Z M 1.203125 -2.375 C 1.203125 -2.0625 1.269531 -1.78125 1.40625 -1.53125 C 1.550781 -1.289062 1.742188 -1.101562 1.984375 -0.96875 C 2.234375 -0.832031 2.515625 -0.765625 2.828125 -0.765625 C 3.148438 -0.765625 3.429688 -0.832031 3.671875 -0.96875 C 3.921875 -1.101562 4.113281 -1.289062 4.25 -1.53125 C 4.382812 -1.78125 4.453125 -2.0625 4.453125 -2.375 C 4.453125 -2.6875 4.382812 -2.960938 4.25 -3.203125 C 4.113281 -3.453125 3.921875 -3.644531 3.671875 -3.78125 C 3.429688 -3.914062 3.148438 -3.984375 2.828125 -3.984375 C 2.515625 -3.984375 2.234375 -3.914062 1.984375 -3.78125 C 1.742188 -3.644531 1.550781 -3.453125 1.40625 -3.203125 C 1.269531 -2.960938 1.203125 -2.6875 1.203125 -2.375 Z M 1.203125 -2.375 "/></g></g></g><g fill="#ffffff" fill-opacity="1"><g transform="translate(199.5501, 210.158479)"><g><path d="M 2.328125 0.078125 C 1.773438 0.078125 1.34375 -0.046875 1.03125 -0.296875 C 0.71875 -0.554688 0.5625 -0.898438 0.5625 -1.328125 C 0.5625 -1.742188 0.703125 -2.078125 0.984375 -2.328125 C 1.273438 -2.578125 1.660156 -2.703125 2.140625 -2.703125 L 4.015625 -2.703125 L 4.015625 -2.859375 C 4.015625 -3.222656 3.898438 -3.503906 3.671875 -3.703125 C 3.453125 -3.910156 3.148438 -4.015625 2.765625 -4.015625 C 2.460938 -4.015625 2.203125 -3.945312 1.984375 -3.8125 C 1.765625 -3.675781 1.617188 -3.5 1.546875 -3.28125 L 0.796875 -3.28125 C 0.898438 -3.71875 1.125 -4.0625 1.46875 -4.3125 C 1.820312 -4.570312 2.25 -4.703125 2.75 -4.703125 C 3.15625 -4.703125 3.503906 -4.625 3.796875 -4.46875 C 4.097656 -4.320312 4.332031 -4.113281 4.5 -3.84375 C 4.675781 -3.582031 4.765625 -3.273438 4.765625 -2.921875 L 4.765625 0 L 4.140625 0 L 4.0625 -0.640625 C 3.644531 -0.160156 3.066406 0.078125 2.328125 0.078125 Z M 1.296875 -1.328125 C 1.296875 -1.109375 1.390625 -0.929688 1.578125 -0.796875 C 1.765625 -0.660156 2.023438 -0.59375 2.359375 -0.59375 C 2.671875 -0.59375 2.953125 -0.65625 3.203125 -0.78125 C 3.453125 -0.90625 3.648438 -1.078125 3.796875 -1.296875 C 3.941406 -1.515625 4.019531 -1.765625 4.03125 -2.046875 L 2.171875 -2.046875 C 1.910156 -2.046875 1.695312 -1.976562 1.53125 -1.84375 C 1.375 -1.71875 1.296875 -1.546875 1.296875 -1.328125 Z M 1.296875 -1.328125 "/></g></g></g><g fill="#ffffff" fill-opacity="1"><g transform="translate(205.03183, 210.158479)"><g><path d="M 3.328125 0.109375 C 2.960938 0.109375 2.628906 0.0390625 2.328125 -0.09375 C 2.023438 -0.226562 1.769531 -0.414062 1.5625 -0.65625 L 1.5625 1.765625 L 0.828125 1.765625 L 0.828125 -4.59375 L 1.4375 -4.59375 L 1.515625 -3.875 C 1.722656 -4.132812 1.984375 -4.335938 2.296875 -4.484375 C 2.609375 -4.628906 2.953125 -4.703125 3.328125 -4.703125 C 3.773438 -4.703125 4.175781 -4.597656 4.53125 -4.390625 C 4.882812 -4.179688 5.160156 -3.894531 5.359375 -3.53125 C 5.554688 -3.175781 5.65625 -2.765625 5.65625 -2.296875 C 5.65625 -1.828125 5.554688 -1.410156 5.359375 -1.046875 C 5.160156 -0.691406 4.882812 -0.410156 4.53125 -0.203125 C 4.175781 0.00390625 3.773438 0.109375 3.328125 0.109375 Z M 1.53125 -2.296875 C 1.53125 -1.960938 1.601562 -1.664062 1.75 -1.40625 C 1.894531 -1.15625 2.09375 -0.957031 2.34375 -0.8125 C 2.601562 -0.664062 2.898438 -0.59375 3.234375 -0.59375 C 3.566406 -0.59375 3.859375 -0.664062 4.109375 -0.8125 C 4.367188 -0.957031 4.566406 -1.15625 4.703125 -1.40625 C 4.847656 -1.664062 4.921875 -1.960938 4.921875 -2.296875 C 4.921875 -2.628906 4.847656 -2.921875 4.703125 -3.171875 C 4.566406 -3.429688 4.367188 -3.632812 4.109375 -3.78125 C 3.859375 -3.925781 3.566406 -4 3.234375 -4 C 2.898438 -4 2.601562 -3.925781 2.34375 -3.78125 C 2.09375 -3.632812 1.894531 -3.429688 1.75 -3.171875 C 1.601562 -2.921875 1.53125 -2.628906 1.53125 -2.296875 Z M 1.53125 -2.296875 "/></g></g></g><g fill="#ffffff" fill-opacity="1"><g transform="translate(211.150154, 210.158479)"><g/></g></g><g fill="#ffffff" fill-opacity="1"><g transform="translate(213.342853, 210.158479)"><g><path d="M 3.328125 0.109375 C 2.953125 0.109375 2.609375 0.0351562 2.296875 -0.109375 C 1.984375 -0.253906 1.722656 -0.453125 1.515625 -0.703125 L 1.4375 0 L 0.828125 0 L 0.828125 -6.546875 L 1.5625 -6.546875 L 1.5625 -3.9375 C 1.769531 -4.175781 2.023438 -4.363281 2.328125 -4.5 C 2.628906 -4.632812 2.960938 -4.703125 3.328125 -4.703125 C 3.773438 -4.703125 4.175781 -4.597656 4.53125 -4.390625 C 4.882812 -4.179688 5.160156 -3.894531 5.359375 -3.53125 C 5.554688 -3.175781 5.65625 -2.765625 5.65625 -2.296875 C 5.65625 -1.828125 5.554688 -1.410156 5.359375 -1.046875 C 5.160156 -0.691406 4.882812 -0.410156 4.53125 -0.203125 C 4.175781 0.00390625 3.773438 0.109375 3.328125 0.109375 Z M 1.53125 -2.296875 C 1.53125 -1.960938 1.601562 -1.664062 1.75 -1.40625 C 1.894531 -1.15625 2.09375 -0.957031 2.34375 -0.8125 C 2.601562 -0.664062 2.898438 -0.59375 3.234375 -0.59375 C 3.566406 -0.59375 3.859375 -0.664062 4.109375 -0.8125 C 4.367188 -0.957031 4.566406 -1.15625 4.703125 -1.40625 C 4.847656 -1.664062 4.921875 -1.960938 4.921875 -2.296875 C 4.921875 -2.628906 4.847656 -2.921875 4.703125 -3.171875 C 4.566406 -3.429688 4.367188 -3.632812 4.109375 -3.78125 C 3.859375 -3.925781 3.566406 -4 3.234375 -4 C 2.898438 -4 2.601562 -3.925781 2.34375 -3.78125 C 2.09375 -3.632812 1.894531 -3.429688 1.75 -3.171875 C 1.601562 -2.921875 1.53125 -2.628906 1.53125 -2.296875 Z M 1.53125 -2.296875 "/></g></g></g><g fill="#ffffff" fill-opacity="1"><g transform="translate(219.461177, 210.158479)"><g><path d="M 2.8125 0.109375 C 2.351562 0.109375 1.945312 0.0078125 1.59375 -0.1875 C 1.238281 -0.394531 0.957031 -0.679688 0.75 -1.046875 C 0.550781 -1.410156 0.453125 -1.828125 0.453125 -2.296875 C 0.453125 -2.765625 0.550781 -3.179688 0.75 -3.546875 C 0.957031 -3.910156 1.238281 -4.191406 1.59375 -4.390625 C 1.945312 -4.597656 2.359375 -4.703125 2.828125 -4.703125 C 3.316406 -4.703125 3.738281 -4.585938 4.09375 -4.359375 C 4.457031 -4.128906 4.734375 -3.8125 4.921875 -3.40625 C 5.109375 -3 5.195312 -2.53125 5.1875 -2 L 1.21875 -2 C 1.269531 -1.570312 1.441406 -1.226562 1.734375 -0.96875 C 2.023438 -0.707031 2.390625 -0.578125 2.828125 -0.578125 C 3.117188 -0.578125 3.390625 -0.640625 3.640625 -0.765625 C 3.890625 -0.898438 4.085938 -1.085938 4.234375 -1.328125 L 5.0625 -1.328125 C 4.882812 -0.878906 4.59375 -0.523438 4.1875 -0.265625 C 3.789062 -0.015625 3.332031 0.109375 2.8125 0.109375 Z M 1.21875 -2.65625 L 4.4375 -2.65625 C 4.363281 -3.070312 4.179688 -3.398438 3.890625 -3.640625 C 3.597656 -3.878906 3.242188 -4 2.828125 -4 C 2.398438 -4 2.039062 -3.875 1.75 -3.625 C 1.457031 -3.382812 1.28125 -3.0625 1.21875 -2.65625 Z M 1.21875 -2.65625 "/></g></g></g><g fill="#ffffff" fill-opacity="1"><g transform="translate(225.084371, 210.158479)"><g><path d="M 2.796875 0 C 2.296875 0 1.90625 -0.140625 1.625 -0.421875 C 1.34375 -0.710938 1.203125 -1.125 1.203125 -1.65625 L 1.203125 -3.90625 L 0.234375 -3.90625 L 0.234375 -4.59375 L 0.703125 -4.59375 C 0.910156 -4.59375 1.054688 -4.625 1.140625 -4.6875 C 1.222656 -4.757812 1.273438 -4.898438 1.296875 -5.109375 L 1.375 -5.734375 L 1.953125 -5.734375 L 1.953125 -4.59375 L 3.4375 -4.59375 L 3.4375 -3.90625 L 1.953125 -3.90625 L 1.953125 -1.6875 C 1.953125 -1.039062 2.25 -0.71875 2.84375 -0.71875 L 3.5 -0.71875 L 3.5 0 Z M 2.796875 0 "/></g></g></g><g fill="#ffffff" fill-opacity="1"><g transform="translate(229.009996, 210.158479)"><g><path d="M 1.796875 0 L 0.15625 -4.59375 L 0.9375 -4.59375 L 1.671875 -2.515625 L 2.171875 -1.109375 L 2.703125 -2.515625 L 3.5 -4.59375 L 4.171875 -4.59375 L 5.515625 -1.109375 L 6 -2.515625 L 6.75 -4.59375 L 7.53125 -4.59375 L 5.875 0 L 5.171875 0 L 4.4375 -1.890625 L 3.84375 -3.5 L 2.515625 0 Z M 1.796875 0 "/></g></g></g><g fill="#ffffff" fill-opacity="1"><g transform="translate(236.684425, 210.158479)"><g><path d="M 2.8125 0.109375 C 2.351562 0.109375 1.945312 0.0078125 1.59375 -0.1875 C 1.238281 -0.394531 0.957031 -0.679688 0.75 -1.046875 C 0.550781 -1.410156 0.453125 -1.828125 0.453125 -2.296875 C 0.453125 -2.765625 0.550781 -3.179688 0.75 -3.546875 C 0.957031 -3.910156 1.238281 -4.191406 1.59375 -4.390625 C 1.945312 -4.597656 2.359375 -4.703125 2.828125 -4.703125 C 3.316406 -4.703125 3.738281 -4.585938 4.09375 -4.359375 C 4.457031 -4.128906 4.734375 -3.8125 4.921875 -3.40625 C 5.109375 -3 5.195312 -2.53125 5.1875 -2 L 1.21875 -2 C 1.269531 -1.570312 1.441406 -1.226562 1.734375 -0.96875 C 2.023438 -0.707031 2.390625 -0.578125 2.828125 -0.578125 C 3.117188 -0.578125 3.390625 -0.640625 3.640625 -0.765625 C 3.890625 -0.898438 4.085938 -1.085938 4.234375 -1.328125 L 5.0625 -1.328125 C 4.882812 -0.878906 4.59375 -0.523438 4.1875 -0.265625 C 3.789062 -0.015625 3.332031 0.109375 2.8125 0.109375 Z M 1.21875 -2.65625 L 4.4375 -2.65625 C 4.363281 -3.070312 4.179688 -3.398438 3.890625 -3.640625 C 3.597656 -3.878906 3.242188 -4 2.828125 -4 C 2.398438 -4 2.039062 -3.875 1.75 -3.625 C 1.457031 -3.382812 1.28125 -3.0625 1.21875 -2.65625 Z M 1.21875 -2.65625 "/></g></g></g><g fill="#ffffff" fill-opacity="1"><g transform="translate(242.307619, 210.158479)"><g><path d="M 2.8125 0.109375 C 2.351562 0.109375 1.945312 0.0078125 1.59375 -0.1875 C 1.238281 -0.394531 0.957031 -0.679688 0.75 -1.046875 C 0.550781 -1.410156 0.453125 -1.828125 0.453125 -2.296875 C 0.453125 -2.765625 0.550781 -3.179688 0.75 -3.546875 C 0.957031 -3.910156 1.238281 -4.191406 1.59375 -4.390625 C 1.945312 -4.597656 2.359375 -4.703125 2.828125 -4.703125 C 3.316406 -4.703125 3.738281 -4.585938 4.09375 -4.359375 C 4.457031 -4.128906 4.734375 -3.8125 4.921875 -3.40625 C 5.109375 -3 5.195312 -2.53125 5.1875 -2 L 1.21875 -2 C 1.269531 -1.570312 1.441406 -1.226562 1.734375 -0.96875 C 2.023438 -0.707031 2.390625 -0.578125 2.828125 -0.578125 C 3.117188 -0.578125 3.390625 -0.640625 3.640625 -0.765625 C 3.890625 -0.898438 4.085938 -1.085938 4.234375 -1.328125 L 5.0625 -1.328125 C 4.882812 -0.878906 4.59375 -0.523438 4.1875 -0.265625 C 3.789062 -0.015625 3.332031 0.109375 2.8125 0.109375 Z M 1.21875 -2.65625 L 4.4375 -2.65625 C 4.363281 -3.070312 4.179688 -3.398438 3.890625 -3.640625 C 3.597656 -3.878906 3.242188 -4 2.828125 -4 C 2.398438 -4 2.039062 -3.875 1.75 -3.625 C 1.457031 -3.382812 1.28125 -3.0625 1.21875 -2.65625 Z M 1.21875 -2.65625 "/></g></g></g><g fill="#ffffff" fill-opacity="1"><g transform="translate(247.930814, 210.158479)"><g><path d="M 0.828125 0 L 0.828125 -4.59375 L 1.4375 -4.59375 L 1.515625 -3.921875 C 1.710938 -4.191406 1.953125 -4.390625 2.234375 -4.515625 C 2.523438 -4.640625 2.820312 -4.703125 3.125 -4.703125 C 3.738281 -4.703125 4.21875 -4.503906 4.5625 -4.109375 C 4.90625 -3.722656 5.078125 -3.207031 5.078125 -2.5625 L 5.078125 0 L 4.328125 0 L 4.328125 -2.484375 C 4.328125 -2.953125 4.210938 -3.320312 3.984375 -3.59375 C 3.753906 -3.863281 3.4375 -4 3.03125 -4 C 2.75 -4 2.5 -3.925781 2.28125 -3.78125 C 2.0625 -3.644531 1.882812 -3.453125 1.75 -3.203125 C 1.625 -2.953125 1.5625 -2.65625 1.5625 -2.3125 L 1.5625 0 Z M 0.828125 0 "/></g></g></g><g fill="#ffffff" fill-opacity="1"><g transform="translate(253.739677, 210.158479)"><g/></g></g><g fill="#ffffff" fill-opacity="1"><g transform="translate(255.932376, 210.158479)"><g><path d="M 2.65625 0.109375 C 2.050781 0.109375 1.578125 -0.0820312 1.234375 -0.46875 C 0.898438 -0.851562 0.734375 -1.375 0.734375 -2.03125 L 0.734375 -4.59375 L 1.484375 -4.59375 L 1.484375 -2.109375 C 1.484375 -1.648438 1.59375 -1.28125 1.8125 -1 C 2.039062 -0.726562 2.351562 -0.59375 2.75 -0.59375 C 3.175781 -0.59375 3.523438 -0.742188 3.796875 -1.046875 C 4.066406 -1.359375 4.203125 -1.765625 4.203125 -2.265625 L 4.203125 -4.59375 L 4.9375 -4.59375 L 4.9375 0 L 4.328125 0 L 4.25 -0.671875 C 4.050781 -0.398438 3.8125 -0.203125 3.53125 -0.078125 C 3.25 0.046875 2.957031 0.109375 2.65625 0.109375 Z M 2.65625 0.109375 "/></g></g></g><g fill="#ffffff" fill-opacity="1"><g transform="translate(261.697034, 210.158479)"><g><path d="M 2.484375 0.109375 C 1.878906 0.109375 1.394531 -0.03125 1.03125 -0.3125 C 0.675781 -0.601562 0.492188 -0.976562 0.484375 -1.4375 L 1.21875 -1.4375 C 1.226562 -1.164062 1.34375 -0.945312 1.5625 -0.78125 C 1.789062 -0.625 2.101562 -0.546875 2.5 -0.546875 C 2.84375 -0.546875 3.113281 -0.601562 3.3125 -0.71875 C 3.507812 -0.84375 3.609375 -1.007812 3.609375 -1.21875 C 3.609375 -1.425781 3.503906 -1.59375 3.296875 -1.71875 C 3.085938 -1.851562 2.757812 -1.957031 2.3125 -2.03125 C 1.726562 -2.132812 1.289062 -2.296875 1 -2.515625 C 0.71875 -2.742188 0.578125 -3.035156 0.578125 -3.390625 C 0.578125 -3.804688 0.734375 -4.128906 1.046875 -4.359375 C 1.359375 -4.585938 1.796875 -4.703125 2.359375 -4.703125 C 2.921875 -4.703125 3.367188 -4.578125 3.703125 -4.328125 C 4.046875 -4.078125 4.234375 -3.722656 4.265625 -3.265625 L 3.53125 -3.265625 C 3.507812 -3.523438 3.394531 -3.71875 3.1875 -3.84375 C 2.988281 -3.976562 2.710938 -4.046875 2.359375 -4.046875 C 2.023438 -4.046875 1.765625 -3.988281 1.578125 -3.875 C 1.398438 -3.757812 1.3125 -3.597656 1.3125 -3.390625 C 1.3125 -3.203125 1.40625 -3.050781 1.59375 -2.9375 C 1.78125 -2.832031 2.113281 -2.734375 2.59375 -2.640625 C 3.757812 -2.410156 4.34375 -1.929688 4.34375 -1.203125 C 4.34375 -0.804688 4.171875 -0.488281 3.828125 -0.25 C 3.492188 -0.0078125 3.046875 0.109375 2.484375 0.109375 Z M 2.484375 0.109375 "/></g></g></g></svg>